<svg xmlns="http://www.w3.org/2000/svg" width="22.144" height="23.866" viewBox="0 0 22.144 23.866">
  <path id="Path_3924" data-name="Path 3924" d="M179.871,783.958c.013-.1.03-.209.05-.335C179.9,783.749,179.884,783.86,179.871,783.958Zm18.315-5.616.08.566-1.8.258-4.111.585c-3.075.435-6.4.9-7.369,1.024a4.713,4.713,0,0,0-2.355,1.023,3.561,3.561,0,0,0-1,1.249h17.959V785.1H179.246v-.6c0-.014,0-.031,0-.052,0-.043.006-.105.013-.185.015-.161.042-.4.1-.731a5.693,5.693,0,0,1,3.442-4.243l-2.89-10.721H177.5V766.5h3.859l.606,1.746h17.68l-.929,10.6-.449.064S198.267,778.908,198.186,778.342Zm-1.432-1.3-12.022,1.7-2.131-8.453h14.872Zm-11.606,13.323A1.364,1.364,0,1,0,183.784,789,1.363,1.363,0,0,0,185.149,790.366Zm7.713,0A1.364,1.364,0,1,0,191.5,789,1.364,1.364,0,0,0,192.861,790.366Z" transform="translate(-177.5 -766.5)" fill="#fff" fill-rule="evenodd"/>
</svg>
