<svg xmlns="http://www.w3.org/2000/svg" width="22.457" height="18.492" viewBox="0 0 22.457 18.492">
  <path id="currency" d="M21.681,9.476V6.129a1.976,1.976,0,0,0-1.974-1.974H17.039L13.577.693a.658.658,0,0,0-.93,0L11.265,2.074,9.884.693a.658.658,0,0,0-.93,0L5.491,4.155H1.974A1.976,1.976,0,0,0,0,6.129V17.018a1.976,1.976,0,0,0,1.974,1.974H19.708a1.976,1.976,0,0,0,1.974-1.974V13.672a1.317,1.317,0,0,0,.775-1.2v-1.8A1.318,1.318,0,0,0,21.681,9.476Zm-1.974,8.2H18.162a1.966,1.966,0,0,0,.113-.658v-3.23h2.091v3.23A.659.659,0,0,1,19.708,17.676Zm-17.734,0a.659.659,0,0,1-.658-.658V6.129a.659.659,0,0,1,.658-.658H16.3a.659.659,0,0,1,.658.658v3.23H14.486a1.317,1.317,0,0,0-1.316,1.316v1.8a1.317,1.317,0,0,0,1.316,1.316h2.473v3.23a.659.659,0,0,1-.658.658ZM20.366,6.129v3.23H18.275V6.129a1.964,1.964,0,0,0-.113-.658h1.546A.659.659,0,0,1,20.366,6.129Zm-5.88,6.344v-1.8h6.655v1.8H14.486Zm.693-8.317H11.045l2.067-2.067Zm-5.995,0H7.352L9.419,2.088,10.335,3Zm0,0" transform="translate(0 -0.5)" fill="#fff"/>
</svg>
