<svg xmlns="http://www.w3.org/2000/svg" width="26.74" height="25.021" viewBox="0 0 26.74 25.021">
  <path id="Path_3926" data-name="Path 3926" d="M260.046,783.367c.4-4.319,3.474-7.517,7.384-7.517a7.045,7.045,0,0,1,5.871,3.184,7.327,7.327,0,0,1,6.009-3.184c3.912,0,6.988,3.2,7.384,7.518a7.832,7.832,0,0,1-.228,2.863,12.112,12.112,0,0,1-3.711,6.194h0l-9.463,8.443-9.305-8.445a12.112,12.112,0,0,1-3.711-6.194m-.228-2.864a7.836,7.836,0,0,0,.228,2.864Z" transform="translate(-260 -775.85)" fill="#707070" fill-rule="evenodd"/>
</svg>
