<svg xmlns="http://www.w3.org/2000/svg" width="18.309" height="23.09" viewBox="0 0 18.309 23.09">
  <path id="finished" d="M3.76,23.09A3.76,3.76,0,0,1,.011,19.043l1.032-13A1.624,1.624,0,0,1,2.654,4.555H4.691V4.463a4.463,4.463,0,1,1,8.926,0v.092h2.037a1.623,1.623,0,0,1,1.611,1.492L18.3,19.042a3.758,3.758,0,0,1-3.749,4.049ZM2.391,6.151l-1.032,13a2.406,2.406,0,0,0,2.4,2.589H14.549a2.406,2.406,0,0,0,2.4-2.591L15.918,6.153a.265.265,0,0,0-.264-.246H13.618V7.573a.676.676,0,1,1-1.352,0V5.908H6.043V7.573a.676.676,0,1,1-1.352,0V5.908H2.654A.264.264,0,0,0,2.391,6.151ZM6.043,4.463v.092h6.222V4.463a3.111,3.111,0,0,0-6.222,0ZM7.51,16.2,5.6,14.285a.79.79,0,0,1,1.117-1.118l1.357,1.356L11.6,11a.79.79,0,0,1,1.117,1.117L8.628,16.2a.79.79,0,0,1-1.117,0Z" fill="#fff"/>
</svg>
