<svg xmlns="http://www.w3.org/2000/svg" width="22.215" height="20.235" viewBox="0 0 22.215 20.235">
  <path id="_007-discuss-issue" data-name="007-discuss-issue" d="M17,20.944a1.842,1.842,0,0,1-.848,1.383c-.135.114-.388.321-.387.4a.542.542,0,0,1-.546.547h0a.544.544,0,0,1-.551-.538,1.649,1.649,0,0,1,.78-1.247c.274-.23.454-.393.454-.541a.545.545,0,0,0-1.09,0,.551.551,0,0,1-1.1,0,1.647,1.647,0,0,1,3.293,0Zm-1.77,2.837a.54.54,0,0,0-.539.551v0a.539.539,0,0,0,.539.549.552.552,0,0,0,0-1.1Zm-11.1,3.837a.551.551,0,0,0,0,1.1H4.17a.551.551,0,1,0,0-1.1Zm1.914,0a.551.551,0,0,0,0,1.1h.046a.551.551,0,0,0,0-1.1Zm16.177-8.8v6.2a2.648,2.648,0,0,1-2.645,2.659H12.427c-.14,0-.255,0-.351,0s-.214,0-.259,0c-.046.031-.159.134-.268.234l-.145.132L9.384,29.886a.564.564,0,0,1-.939-.407V23.64H2.676A1.578,1.578,0,0,0,1.1,25.206v6.2a1.554,1.554,0,0,0,1.574,1.537h7.979a.553.553,0,0,1,.367.156l1.646,1.518V29.381a.551.551,0,0,1,1.1,0v6.483a.543.543,0,0,1-.325.5.528.528,0,0,1-.218.044.557.557,0,0,1-.371-.15l-2.415-2.216H2.676A2.657,2.657,0,0,1,0,31.405v-6.2a2.681,2.681,0,0,1,2.676-2.667h5.77V18.821a2.672,2.672,0,0,1,2.685-2.647h8.44A2.637,2.637,0,0,1,22.215,18.821Zm-1.1,0a1.535,1.535,0,0,0-1.543-1.545H11.13a1.569,1.569,0,0,0-1.583,1.545v9.41l1.107-1c.051-.047.109-.09.151-.128a1.39,1.39,0,0,1,1.295-.527c.09,0,.2,0,.328,0H19.57a1.545,1.545,0,0,0,1.543-1.557v-6.2Z" transform="translate(0 -16.174)" fill="#e8194a"/>
</svg>
