<svg xmlns="http://www.w3.org/2000/svg" width="24.085" height="21.939" viewBox="0 0 24.085 21.939">
  <g id="Group_19112" data-name="Group 19112" transform="translate(-15.5 -16.5)">
    <path id="_007-discuss-issue" data-name="007-discuss-issue" d="M4.472,28.582a.6.6,0,1,0,0,1.194h.05a.6.6,0,1,0,0-1.194Zm2.075,0a.6.6,0,0,0,0,1.194H6.6a.6.6,0,0,0,0-1.194Zm17.539-9.538v6.721a2.871,2.871,0,0,1-2.867,2.883H13.474c-.151,0-.276,0-.38,0s-.232,0-.28,0c-.05.033-.172.145-.29.254l-.157.143-2.191,2A.611.611,0,0,1,9.156,30.6V24.269H2.9a1.711,1.711,0,0,0-1.707,1.7v6.721A1.685,1.685,0,0,0,2.9,34.354h8.65a.6.6,0,0,1,.4.169l1.785,1.646V30.493a.6.6,0,0,1,1.194,0v7.029a.589.589,0,0,1-.352.543.573.573,0,0,1-.237.048.6.6,0,0,1-.4-.162l-2.618-2.4H2.9A2.88,2.88,0,0,1,0,32.688V25.966a2.907,2.907,0,0,1,2.9-2.892H9.156V19.044a2.9,2.9,0,0,1,2.911-2.87h9.151A2.859,2.859,0,0,1,24.085,19.044Zm-1.194,0a1.664,1.664,0,0,0-1.673-1.675H12.067a1.7,1.7,0,0,0-1.717,1.675v10.2l1.2-1.085c.056-.051.118-.1.163-.139a1.508,1.508,0,0,1,1.4-.571c.1,0,.214,0,.355,0h7.744a1.675,1.675,0,0,0,1.673-1.689V19.044Z" transform="translate(15.5 0.326)" fill="#fff"/>
    <circle id="Ellipse_255" data-name="Ellipse 255" cx="1" cy="1" r="1" transform="translate(28 22)" fill="#fff"/>
    <circle id="Ellipse_256" data-name="Ellipse 256" cx="1" cy="1" r="1" transform="translate(31 22)" fill="#fff"/>
    <circle id="Ellipse_257" data-name="Ellipse 257" cx="1" cy="1" r="1" transform="translate(34 22)" fill="#fff"/>
  </g>
</svg>
