<svg id="language" xmlns="http://www.w3.org/2000/svg" width="22.501" height="22.5" viewBox="0 0 22.501 22.5">
  <path id="Path_58" data-name="Path 58" d="M14.986,19.864,18.5,22.5V19.864h4V7.954H14.546V0H0V11.909H4v2.637l3.516-2.637h.439v7.954Zm6.2-1.318h-4v1.318l-1.758-1.318H9.273V9.273H21.182ZM7.075,10.591,5.318,11.909V10.591h-4V1.318H13.228V7.954H10.339L7.3,1.866,4.069,8.319l1.179.59L6.054,7.3H8.536l.33.659H7.954v2.637Zm.8-4.614H6.714L7.3,4.814Zm0,0" fill="#e8194a"/>
  <path id="Path_59" data-name="Path 59" d="M273.372,245.369a3.413,3.413,0,0,1-1.712.905v1.318a4.662,4.662,0,0,0,2.637-1.28,4.662,4.662,0,0,0,2.637,1.28v-1.318a3.413,3.413,0,0,1-1.712-.905,4.822,4.822,0,0,0,.961-1.732h1.41v-1.318h-2.637V241h-1.318v1.318H271v1.318h1.41A4.823,4.823,0,0,0,273.372,245.369Zm.924-.953a4.065,4.065,0,0,1-.487-.779h.973A4.061,4.061,0,0,1,274.3,244.415Zm0,0" transform="translate(-259.091 -230.409)" fill="#e8194a"/>
</svg>
