<svg xmlns="http://www.w3.org/2000/svg" width="20.428" height="19.177" viewBox="0 0 20.428 19.177">
  <path id="love-svgrepo-com_1_" data-name="love-svgrepo-com (1)" d="M5.718,1.965a7.391,7.391,0,0,1,4.727,1.782,7.391,7.391,0,0,1,4.727-1.782,4.371,4.371,0,0,1,4.009,2.327c.747,1.514.615,3.585-.641,6.031s-3.678,5.359-7.679,8.656a.641.641,0,0,1-.833,0c-4-3.3-6.421-6.206-7.679-8.656S.961,5.806,1.708,4.292A4.371,4.371,0,0,1,5.718,1.965Z" transform="translate(-0.231 -0.964)" fill="none" stroke="#e8194a" stroke-width="2" fill-rule="evenodd"/>
</svg>
