<svg id="Group_3" data-name="Group 3" xmlns="http://www.w3.org/2000/svg" width="25.713" height="23.458" viewBox="0 0 25.713 23.458">
  <g id="Group_11" data-name="Group 11" transform="translate(0)">
    <g id="Group_13" data-name="Group 13">
      <path id="Path" d="M2.424,0a2.44,2.44,0,0,1,.938.182,2.479,2.479,0,0,1,.782.508,2.234,2.234,0,0,1,.521.769,2.44,2.44,0,0,1,.182.938,2.44,2.44,0,0,1-.182.938,2.234,2.234,0,0,1-.521.769,2.677,2.677,0,0,1-.782.521,2.3,2.3,0,0,1-.938.2,2.272,2.272,0,0,1-.951-.2A2.733,2.733,0,0,1,.7,4.105a2.234,2.234,0,0,1-.521-.769A2.44,2.44,0,0,1,0,2.4,2.44,2.44,0,0,1,.182,1.46,2.234,2.234,0,0,1,.7.691,2.521,2.521,0,0,1,1.473.182,2.412,2.412,0,0,1,2.424,0Z" transform="translate(6.203 18.584)" fill="#e8194a"/>
      <path id="Path-2" data-name="Path" d="M2.424,0a2.538,2.538,0,0,1,.951.182,2.3,2.3,0,0,1,.782.508,2.506,2.506,0,0,1,.521.769,2.35,2.35,0,0,1,0,1.877,2.506,2.506,0,0,1-.521.769,2.465,2.465,0,0,1-.782.521,2.391,2.391,0,0,1-.951.2,2.3,2.3,0,0,1-.938-.2A2.464,2.464,0,0,1,.2,3.336,2.35,2.35,0,0,1,.2,1.46,2.506,2.506,0,0,1,.717.691,2.328,2.328,0,0,1,1.486.182,2.44,2.44,0,0,1,2.424,0Z" transform="translate(17.046 18.636)" fill="#e8194a"/>
      <path id="Path-3" data-name="Path" d="M24.983,3.726a1.269,1.269,0,0,1,.573.446.955.955,0,0,1,.156.567,1.761,1.761,0,0,1-.091.519c-.052.145-3.08,10.7-3.245,10.938a1.132,1.132,0,0,1-.977.35H7.741a1.635,1.635,0,0,1-.873-.217,1.9,1.9,0,0,1-.586-.567A3.331,3.331,0,0,1,5.9,15a6.532,6.532,0,0,1-.222-.772q-.026-.145-.143-.7t-.287-1.387l-.378-1.857q-.209-1.025-.417-2.062L3.521,3.692a1.12,1.12,0,0,0-1.1-.894H1.381A1.116,1.116,0,0,1,.73,2.617,1.628,1.628,0,0,1,.3,2.183,1.6,1.6,0,0,1,.065,1.64,2.431,2.431,0,0,1,0,1.109a1.019,1.019,0,0,1,.352-.8A1.378,1.378,0,0,1,1.3,0H3.936A2.01,2.01,0,0,1,4.77.145a1.4,1.4,0,0,1,.5.362,1.367,1.367,0,0,1,.261.458q.078.241.13.41a5.066,5.066,0,0,1,.1.543q.052.35.1.712h0a1.1,1.1,0,0,0,1.086.917h16.9A2.849,2.849,0,0,1,24.983,3.726Z" transform="translate(0)" fill="#e8194a"/>
      <path id="Path-4" data-name="Path" d="M4.929,4.379H2.155a1.152,1.152,0,0,1-.616-.153,1.341,1.341,0,0,1-.413-.4,2.348,2.348,0,0,1-.266-.536A4.6,4.6,0,0,1,.7,2.747C.691,2.679.055.261,0,0" transform="translate(7.096 9.9)" fill="none" stroke="#fff" stroke-linecap="round" stroke-miterlimit="10" stroke-width="1"/>
    </g>
  </g>
</svg>
