<svg id="payment" xmlns="http://www.w3.org/2000/svg" width="22.163" height="17.771" viewBox="0 0 22.163 17.771">
  <g id="Group_102" data-name="Group 102">
    <g id="Group_101" data-name="Group 101" transform="translate(0 0)">
      <path id="Path_53" data-name="Path 53" d="M19.854,85.333H2.309A2.579,2.579,0,0,0,0,88.11v12.218A2.579,2.579,0,0,0,2.309,103.1H19.854a2.579,2.579,0,0,0,2.309-2.777V88.11A2.579,2.579,0,0,0,19.854,85.333Zm1.385,14.995a1.547,1.547,0,0,1-1.385,1.666H2.309a1.547,1.547,0,0,1-1.385-1.666V88.11a1.547,1.547,0,0,1,1.385-1.666H19.854a1.547,1.547,0,0,1,1.385,1.666v12.218Z" transform="translate(0 -85.333)" fill="#e8194a"/>
    </g>
  </g>
  <g id="Group_104" data-name="Group 104" transform="translate(0 3.332)">
    <g id="Group_103" data-name="Group 103" transform="translate(0 0)">
      <path id="Path_54" data-name="Path 54" d="M21.7,149.333H.462a.515.515,0,0,0-.462.555v3.332a.515.515,0,0,0,.462.555H21.7a.515.515,0,0,0,.462-.555v-3.332A.515.515,0,0,0,21.7,149.333Zm-.462,3.332H.923v-2.221H21.239v2.221Z" transform="translate(0 -149.333)" fill="#e8194a"/>
    </g>
  </g>
  <g id="Group_106" data-name="Group 106" transform="translate(3.332 11.107)">
    <g id="Group_105" data-name="Group 105" transform="translate(0 0)">
      <path id="Path_55" data-name="Path 55" d="M71.22,298.667H64.555a.555.555,0,1,0,0,1.111H71.22a.555.555,0,1,0,0-1.111Z" transform="translate(-64 -298.667)" fill="#e8194a"/>
    </g>
  </g>
  <g id="Group_108" data-name="Group 108" transform="translate(3.332 13.328)">
    <g id="Group_107" data-name="Group 107" transform="translate(0 0)">
      <path id="Path_56" data-name="Path 56" d="M71.22,341.333H64.555a.555.555,0,1,0,0,1.111H71.22a.555.555,0,1,0,0-1.111Z" transform="translate(-64 -341.333)" fill="#e8194a"/>
    </g>
  </g>
  <g id="Group_110" data-name="Group 110" transform="translate(14.388 9.996)">
    <g id="Group_109" data-name="Group 109" transform="translate(0 0)">
      <path id="Path_57" data-name="Path 57" d="M365.444,277.333h-1.111A1.668,1.668,0,0,0,362.667,279v1.111a1.668,1.668,0,0,0,1.666,1.666h1.111a1.668,1.668,0,0,0,1.666-1.666V279A1.668,1.668,0,0,0,365.444,277.333ZM366,280.11a.556.556,0,0,1-.555.555h-1.111a.556.556,0,0,1-.555-.555V279a.556.556,0,0,1,.555-.555h1.111A.556.556,0,0,1,366,279Z" transform="translate(-362.667 -277.333)" fill="#e8194a"/>
    </g>
  </g>
</svg>
