<svg xmlns="http://www.w3.org/2000/svg" width="20.991" height="24.808" viewBox="0 0 20.991 24.808">
  <path id="pending_shipments" data-name="pending shipments" d="M17.918,3.074A10.5,10.5,0,0,0,0,10.417s0,.008,0,.012l.047.067,5.761,8.187v6.126H15.2V18.682L20.961,10.5l.03-.044a.273.273,0,0,0,0-.03A10.423,10.423,0,0,0,17.918,3.074ZM10.5,1.454a9.057,9.057,0,0,1,8.931,7.619h0a3.438,3.438,0,0,0-1.728-.4,3.98,3.98,0,0,0-2.325.95,3.737,3.737,0,0,0-2.56-.95,3.982,3.982,0,0,0-2.325.95,3.74,3.74,0,0,0-2.56-.95,3.982,3.982,0,0,0-2.325.95,3.742,3.742,0,0,0-2.56-.95,3.594,3.594,0,0,0-1.479.4h0A9.057,9.057,0,0,1,10.5,1.454Zm3.251,21.9H7.262V19.139h6.485ZM9.733,17.685h-.66L6.464,10.8a2.585,2.585,0,0,1,1.522-.672,2.472,2.472,0,0,1,1.746.766Zm1.454,0V10.951a2.715,2.715,0,0,1,1.685-.822,2.387,2.387,0,0,1,1.636.669L11.9,17.685ZM1.879,10.572a2.363,2.363,0,0,1,1.233-.443A2.6,2.6,0,0,1,5,11.041l2.518,6.644H6.884Zm12.245,7.114h-.673l2.508-6.618a2.816,2.816,0,0,1,1.8-.938,2.208,2.208,0,0,1,1.364.456h0Zm0,0" transform="translate(0)" fill="#fff"/>
</svg>
