<svg id="_006-shield" data-name="006-shield" xmlns="http://www.w3.org/2000/svg" width="19.019" height="22.335" viewBox="0 0 19.019 22.335">
  <path id="Path_60" data-name="Path 60" d="M19,6.059V6.042c-.01-.215-.016-.442-.02-.694a2.367,2.367,0,0,0-2.229-2.319A9.185,9.185,0,0,1,10.5.394L10.481.38a1.429,1.429,0,0,0-1.943,0L8.524.394A9.186,9.186,0,0,1,2.272,3.029,2.367,2.367,0,0,0,.044,5.348c0,.251-.01.478-.02.694v.04C-.027,8.7-.089,11.959,1,14.917a11.247,11.247,0,0,0,2.7,4.2,14.115,14.115,0,0,0,5.28,3.123A1.633,1.633,0,0,0,9.2,22.3a1.6,1.6,0,0,0,.628,0,1.635,1.635,0,0,0,.217-.059,14.124,14.124,0,0,0,5.275-3.125,11.264,11.264,0,0,0,2.7-4.2C19.109,11.948,19.047,8.682,19,6.059Zm-2.212,8.4c-1.15,3.118-3.5,5.259-7.176,6.545a.337.337,0,0,1-.042.011.294.294,0,0,1-.115,0l-.041-.011c-3.683-1.284-6.031-3.424-7.18-6.542-1-2.727-.948-5.718-.9-8.357V6.092c.01-.227.017-.464.021-.725a1.052,1.052,0,0,1,.992-1.03,11.5,11.5,0,0,0,3.9-.858A10.211,10.211,0,0,0,9.429,1.342a.121.121,0,0,1,.162,0,10.214,10.214,0,0,0,3.181,2.137,11.5,11.5,0,0,0,3.9.858,1.052,1.052,0,0,1,.991,1.03c0,.262.011.5.021.725C17.737,8.735,17.793,11.729,16.785,14.461Zm0,0" transform="translate(0 0.001)" fill="#e8194a"/>
  <path id="Path_61" data-name="Path 61" d="M95.965,128.41a5.566,5.566,0,1,0,5.566,5.566A5.572,5.572,0,0,0,95.965,128.41Zm0,9.822a4.256,4.256,0,1,1,4.255-4.256A4.26,4.26,0,0,1,95.965,138.232Zm0,0" transform="translate(-86.455 -122.809)" fill="#e8194a"/>
  <path id="Path_62" data-name="Path 62" d="M158.079,212.183l-2.585,2.585-.7-.7a.655.655,0,0,0-.927.927l1.165,1.165a.655.655,0,0,0,.927,0l3.049-3.049a.655.655,0,0,0-.927-.927Zm0,0" transform="translate(-146.969 -202.744)" fill="#e8194a"/>
</svg>
