<svg xmlns="http://www.w3.org/2000/svg" width="23.901" height="21.177" viewBox="0 0 23.901 21.177">
  <g id="Group_19402" data-name="Group 19402" transform="translate(10172.793 2836.817)">
    <path id="Path_5311" data-name="Path 5311" d="M22.9,51.365H18.616V39.72a1.507,1.507,0,1,0-3.015,0V51.365H11.316a1.116,1.116,0,0,0-.789,1.905l5.793,5.793a1.116,1.116,0,0,0,1.578,0l5.793-5.793a1.116,1.116,0,0,0-.789-1.905Z" transform="translate(-10182.993 -2875.03)" fill="#e8194a"/>
    <path id="Path_5315" data-name="Path 5315" d="M218.718,46.238H223V57.883a1.507,1.507,0,1,0,3.014,0V46.238H230.3a1.116,1.116,0,0,0,.789-1.905L225.3,38.54a1.116,1.116,0,0,0-1.578,0l-5.793,5.793a1.116,1.116,0,0,0,.789,1.905Z" transform="translate(-10380.312 -2875.03)" fill="#e8194a"/>
  </g>
</svg>
